<svg xmlns="http://www.w3.org/2000/svg" viewBox="0 0 256 256"><rect width="256" height="256" fill="none"/><path d="M128,24A104,104,0,1,0,232,128,104.11,104.11,0,0,0,128,24Z" opacity="0.2"/><path d="M116,92H72a28,28,0,0,0,0,56h44a28,28,0,0,1,0,56h44a28,28,0,0,0,0-56H116a28,28,0,0,1,0-56Z" fill="#e01e5a"/><path d="M164,116V72a28,28,0,0,0-56,0v44a28,28,0,0,1-56,0V72a28,28,0,0,0,56,0v44a28,28,0,0,1,56,0Z" fill="#36c5f0"/><path d="M140,164H184a28,28,0,0,0,0-56H140a28,28,0,0,1,0-56H100a28,28,0,0,0,0,56h40a28,28,0,0,1,0,56Z" fill="#2eb67d"/><path d="M92,140V184a28,28,0,0,0,56,0V140a28,28,0,0,1,56,0V184a28,28,0,0,0-56,0V140a28,28,0,0,1-56,0Z" fill="#ecb22e"/></svg>